<?xml version="1.0" encoding="utf-8"?>
<!-- Generator: Adobe Illustrator 16.0.0, SVG Export Plug-In . SVG Version: 6.00 Build 0)  -->
<!DOCTYPE svg PUBLIC "-//W3C//DTD SVG 1.1//EN" "http://www.w3.org/Graphics/SVG/1.1/DTD/svg11.dtd">
<svg version="1.1" id="Layer_1" xmlns="http://www.w3.org/2000/svg" xmlns:xlink="http://www.w3.org/1999/xlink" x="0px" y="0px"
	 width="37.984px" height="29.008px" viewBox="0 0 37.984 29.008" enable-background="new 0 0 37.984 29.008" xml:space="preserve">
<path fill="#FFFFFF" stroke="#0d161d" stroke-miterlimit="10" d="M5.35,27.995h6.001V9.789H5.35V27.995z M8.39,1.013
	c-2.052,0-3.395,1.359-3.395,3.146c0,1.746,1.302,3.146,3.314,3.146h0.04c2.092,0,3.396-1.399,3.396-3.146
	C11.707,2.372,10.443,1.013,8.39,1.013z M32.989,17.557c0-5.594-2.959-8.196-6.905-8.196c-3.187,0-4.611,1.767-5.41,3.007V9.789h-6
	c0.078,1.707,0,18.206,0,18.206h6V17.829c0-0.545,0.039-1.088,0.197-1.478c0.436-1.088,1.422-2.214,3.08-2.214
	c2.172,0,3.038,1.67,3.038,4.115v9.742h6V17.557z M20.634,12.43c0.012-0.021,0.027-0.042,0.039-0.063v0.063H20.634z"/>
</svg>
