<?xml version="1.0" encoding="utf-8"?>
<!-- Generator: Adobe Illustrator 16.0.0, SVG Export Plug-In . SVG Version: 6.00 Build 0)  -->
<!DOCTYPE svg PUBLIC "-//W3C//DTD SVG 1.1//EN" "http://www.w3.org/Graphics/SVG/1.1/DTD/svg11.dtd">
<svg version="1.1" id="Layer_1" xmlns="http://www.w3.org/2000/svg" xmlns:xlink="http://www.w3.org/1999/xlink" x="0px" y="0px"
	 width="37.984px" height="29.008px" viewBox="0 0 37.984 29.008" enable-background="new 0 0 37.984 29.008" xml:space="preserve">
<path fill="#FFFFFF" stroke="#0d161d" stroke-miterlimit="10" d="M34.497,4.965c-1.142,0.502-2.367,0.841-3.654,0.993
	c1.314-0.78,2.322-2.016,2.797-3.49c-1.229,0.724-2.59,1.249-4.039,1.531c-1.16-1.226-2.813-1.991-4.643-1.991
	c-3.515,0-6.363,2.823-6.363,6.307c0,0.494,0.057,0.976,0.165,1.437c-5.287-0.263-9.975-2.774-13.113-6.59
	C5.1,4.093,4.786,5.176,4.786,6.333c0,2.188,1.123,4.118,2.83,5.249c-1.042-0.033-2.023-0.316-2.882-0.789
	c-0.001,0.025-0.001,0.053-0.001,0.08c0,3.056,2.193,5.604,5.104,6.184c-0.534,0.145-1.096,0.222-1.676,0.222
	c-0.411,0-0.81-0.038-1.197-0.112c0.81,2.506,3.159,4.328,5.942,4.379c-2.179,1.692-4.921,2.701-7.9,2.701
	c-0.514,0-1.021-0.031-1.519-0.088c2.815,1.789,6.159,2.834,9.753,2.834c11.701,0,18.1-9.611,18.1-17.946
	c0-0.273-0.006-0.546-0.018-0.816C32.565,7.341,33.646,6.229,34.497,4.965z"/>
</svg>
